# xmcd
#
# Track frame offsets:
#	150
#	9600
#	23700
#	48317
#	69600
#	89725
#	100275
#	115597
#	138975
#	156000
#	181425
#	197775
#
# Disc length: 2967
#
# Revision: 2
# Processed by: cddbd v1.5.1PL0 Copyright (c) Steve Scherf et al.
# Submitted via: DiscPlay 4.0.4
# Normalized: r1:DSETVAR1,TDELIM( - )
#
DISCID=9f0b950c
DTITLE=Various Artist - The Ultimate Blues Collection Vol. One Disk One
DYEAR=1900
DGENRE=
TTITLE0=Big Joe Williams - Bull Cow Blues
TTITLE1=Big Joe Williams - When The Saints Go Marchin In
TTITLE2=Doctor Ross - My Little Woman
TTITLE3=Doctor Ross - Cat Squirrel
TTITLE4=Blind John Davis - Everyday I Have The Blues
TTITLE5=Blind John Davis - Limehouse Blues
TTITLE6=John Lee Hooker - You're So Fine
TTITLE7=John Lee Hooker - It Serve Me Right To Suffer
TTITLE8=Guitar Slim - Early Mornin' Blues
TTITLE9=Tommy Tucker - Come Back Baby/What Did I Say
TTITLE10=Tommy Tucker - Hi Heel Sneakers
TTITLE11=Tommy Tucker/Louisiana Red - Early Morning Blues
EXTD=
EXTT0=
EXTT1=
EXTT2=
EXTT3=
EXTT4=
EXTT5=
EXTT6=
EXTT7=
EXTT8=
EXTT9=
EXTT10=
EXTT11=
PLAYORDER=
